<?xml version="1.0" encoding="utf-8"?><!DOCTYPE svg PUBLIC "-//W3C//DTD SVG 1.1//EN" "http://www.w3.org/Graphics/SVG/1.1/DTD/svg11.dtd"><svg version="1.1" xmlns="http://www.w3.org/2000/svg" x="0px" y="0px" width="1024px" height="112.74px" viewBox="0 0 1024 112.74" enable-background="new 0 0 1024 112.74" xml:space="preserve"><g><path fill="#1D4395" d="M999.266,2.08v64.145L950.614,2.391L950.38,2.08h-22.793v108.321h24.747V44.134l50.522,66.267H1024V2.08 H999.266z"/><path fill="#1D4395" d="M856.339,0.262c-32.351,0-57.69,24.608-57.69,56.015v0.355c0,31.705,24.67,55.618,57.387,55.618 c32.338,0,57.672-24.589,57.672-55.974v-0.371C913.707,24.187,889.044,0.262,856.339,0.262 M824.791,55.906 c0-18.438,13.433-32.345,31.244-32.345c17.983,0,31.541,14.065,31.541,32.716v0.355c0,18.458-13.432,32.375-31.237,32.375 c-17.983,0-31.548-14.07-31.548-32.73V55.906z"/><path fill="#1D4395" d="M757.059,110.398h25.12V2.077h-25.12V110.398z"/><path fill="#1D4395" d="M712.193,44.974c-18.678-4.785-22.458-7.009-22.458-13.235v-0.354c0-5.265,4.993-8.533,13.034-8.533 c8.248,0,17.173,3.407,27.274,10.424l0.657,0.447l12.938-18.949l-0.569-0.456C731.719,5.159,718.255,0.52,703.053,0.52 c-22.508,0-38.229,13.558-38.229,32.969v0.373c0,22.288,15.632,28.104,36.061,33.393c17.965,4.629,20.86,7.556,20.86,12.789v0.289 c0,5.778-5.462,9.23-14.608,9.23c-10.904,0-20.859-4.07-31.333-12.814l-0.606-0.506L660.28,94.119l0.563,0.506 c12.345,11.139,28.634,17.264,45.87,17.264c24.651,0,39.967-12.996,39.967-33.918v-0.235 C746.68,57.889,732.895,50.285,712.193,44.974"/><path fill="#1D4395" d="M622.398,110.398h25.074V2.077h-25.074V110.398z"/><path fill="#1D4395" d="M580.649,2.08L553.375,75.7L526.1,2.593l-0.195-0.513h-27.527l43.772,109.081h21.73L607.697,2.08H580.649z"/><path fill="#1D4395" d="M462.824,0.417L461.749,0v25.548l0.24,0.235c8.154,7.988,12.648,18.779,12.648,30.39v0.259 c0,11.543-4.494,22.338-12.654,30.399l-0.234,0.232v25.676l1.081-0.424c23.135-9.108,37.509-30.524,37.509-55.884V56.08 C500.339,30.675,485.965,9.348,462.824,0.417"/><path fill="#1D4395" d="M446.315,28.374c-6.385-11.087-16.119-19.355-28.153-23.913c-7.004-2.717-14.43-4.096-22.08-4.096 c-12.085,0-23.501,3.351-33.007,9.696c-15.417,10.146-24.62,27.44-24.62,46.269v0.304c0,19.135,8.976,36.017,24.632,46.339 c9.766,6.238,20.791,9.4,32.769,9.4c7.863,0,15.581-1.469,22.307-4.224c12.028-4.708,21.763-13.065,28.153-24.177l0.106-0.184 V28.557L446.315,28.374z M395.855,23.557c8.236,0,15.858,3.072,21.472,8.653c6.385,6.101,10.045,14.893,10.045,24.121v0.304 c0,9.532-3.566,18.13-10.045,24.202c-5.531,5.349-13.078,8.295-21.245,8.295c-17.97,0-31.516-14.104-31.516-32.801v-0.278 C364.567,37.526,378.018,23.557,395.855,23.557"/><path fill="#1D4395" d="M325.119,3.417c-15.436,11.674-24.652,31.395-24.652,52.76v0.461c0,21.43,9.216,41.149,24.652,52.749 l1.264,0.948V2.461L325.119,3.417z"/><path fill="#1D4395" d="M263.692,71.924c14.424-5.758,22.351-17.63,22.351-33.526v-0.316c0-10.335-3.23-18.931-9.33-24.848 c-7.376-7.401-18.008-11.155-31.604-11.155h-49.62v108.321h25.043V76.279h17.289l22.831,34.119h29.361L263.692,71.924z M220.533,24.896h22.484c11.403,0,17.686,5.15,17.686,14.493v0.265c0,8.768-6.542,14.216-17.072,14.216h-23.097V24.896z"/><path fill="#1D4395" d="M155.709,2.08v61.884c0,16.061-7.844,24.903-22.091,24.903c-14.45,0-22.408-9.07-22.408-25.537V2.08H86.186 v61.737c0,31.148,16.687,48.311,46.983,48.311c30.284,0,47.647-17.856,47.647-48.993V2.08H155.709z"/><path fill="#1D4395" d="M70.775,24.567V2.078H0v108.321h70.775V87.999H24.822V67.076h45.953V44.661H24.822V24.567H70.775z"/></g></svg>